<svg width="744" height="739" viewBox="0 0 744 739" fill="none" xmlns="http://www.w3.org/2000/svg"><mask id="a" style="mask-type:luminance" maskUnits="userSpaceOnUse" x="126" y="243" width="491" height="343"><path d="M127.167 244.167h488.666v340.626H127.167z" fill="#fff" stroke="#fff" stroke-width="1.333"/></mask><g mask="url(#a)"><path d="M152.569 345.892c-3.141-4.67-2.069-11.394 2.586-14.471l.006-.004.006-.004 49.882-34.642c100.089-69.125 233.92-69.125 334.009 0l49.882 34.642.006.004.007.004c4.654 3.077 5.726 9.801 2.586 14.471h-.001c-2.095 3.121-5.213 4.654-8.312 4.654-2.114 0-4.135-.526-5.624-2.007l-.042-.041-.048-.034-49.883-34.643-.002-.001c-92.792-63.943-217.247-63.943-310.034 0l-.002.001-49.852 34.622c-5.869 3.158-12.092 2.034-15.17-2.551Zm103.202 228.57v-116.4l10.034 6.966.002.002c3.89 2.76 7.237 4.969 11.141 7.185l.19.107c3.753 2.125 7.53 4.264 11.824 6.403 22.874 50.15 73.483 85.402 132.421 85.402h110.852c18.651 0 33.92-15.135 33.92-33.655s-15.268-33.66-33.92-33.66c-18.656 0-33.925 15.14-33.925 33.66 0 5.674-4.684 10.329-10.415 10.329-5.736 0-10.419-4.655-10.419-10.329 0-29.873 24.635-54.325 54.759-54.325 30.119 0 54.76 24.452 54.76 54.325 0 29.867-24.641 54.319-54.76 54.319H421.383c-61.273 0-114.821-33.404-143.53-82.699l-1.243-2.134v74.504c0 5.674-4.683 10.329-10.419 10.329-5.732 0-10.42-4.656-10.42-10.329Zm-72.58-185.834v.001c-2.858 2.269-5.239 5.741-5.239 9.322s2.381 7.052 5.239 9.322l1.271 1.007h-45.748c-5.736 0-10.42-4.655-10.42-10.329s4.684-10.33 10.42-10.33h45.748zm96.13 57.162-.001-.001-68.49-47.287 68.49-47.292.001-.001c55.198-38.33 129.16-38.33 184.358 0l.001.001 68.489 47.292-68.489 47.287-.002.001c-55.197 38.336-129.159 38.336-184.357 0Zm279.213-57.622h45.752c5.736 0 10.419 4.655 10.419 10.334 0 5.674-4.683 10.33-10.419 10.33h-45.752l1.221-.97c3.569-1.81 5.293-5.906 5.293-9.36 0-3.581-2.381-7.052-5.239-9.322zm-243.127 10.334c0 30.614 25.248 55.653 56.093 55.653s56.093-25.039 56.093-55.653c0-30.619-25.248-55.658-56.093-55.658s-56.093 25.039-56.093 55.658Zm88.68 0c0 17.774-14.662 32.322-32.587 32.322s-32.587-14.548-32.587-32.322c0-17.773 14.662-32.327 32.587-32.327s32.587 14.554 32.587 32.327Z" fill="#000" stroke="#000" stroke-width="1.333"/></g><path d="M372.5 17v220m0-220c-42 0-351 450-351.5 475.5M372.5 17c42 0 350 440.5 350.5 476M372.5 271.5V309M21 492.5s216.5-49.5 224.5-61M21 492.5c0 27 319 229 351.5 230m0-239v61m0 41v137m0 0c38-.5 350.5-196 350.5-229.5m0 0s-215.5-47-226.5-62" stroke="#000" stroke-width="10"/></svg>